<svg xmlns="http://www.w3.org/2000/svg" viewBox="0 0 1024 1024">
    <defs>
        <radialGradient id="bg" cx="50%" cy="-12%" r="135%">
            <stop offset="0%" stop-color="#2b3047"/>
            <stop offset="42%" stop-color="#15171f"/>
            <stop offset="100%" stop-color="#07080b"/>
        </radialGradient>
        <linearGradient id="sheen" x1="0" y1="0" x2="0" y2="1">
            <stop offset="0%" stop-color="#ffffff" stop-opacity="0.06"/>
            <stop offset="30%" stop-color="#ffffff" stop-opacity="0"/>
        </linearGradient>
        <linearGradient id="gB" x1="0" y1="0" x2="0" y2="1">
            <stop offset="0%" stop-color="#7ab8ff"/><stop offset="100%" stop-color="#0a7bff"/>
        </linearGradient>
        <linearGradient id="gG" x1="0" y1="0" x2="0" y2="1">
            <stop offset="0%" stop-color="#86efab"/><stop offset="100%" stop-color="#1fc15c"/>
        </linearGradient>
        <linearGradient id="gO" x1="0" y1="0" x2="0" y2="1">
            <stop offset="0%" stop-color="#ffb340"/><stop offset="100%" stop-color="#ff5b3a"/>
        </linearGradient>
        <linearGradient id="gP" x1="0" y1="0" x2="0" y2="1">
            <stop offset="0%" stop-color="#d9a8ff"/><stop offset="100%" stop-color="#a14df0"/>
        </linearGradient>
        <radialGradient id="aL" cx="50%" cy="50%" r="50%">
            <stop offset="0%" stop-color="#1f8fff" stop-opacity="0.16"/>
            <stop offset="100%" stop-color="#1f8fff" stop-opacity="0"/>
        </radialGradient>
        <radialGradient id="aR" cx="50%" cy="50%" r="50%">
            <stop offset="0%" stop-color="#b35ef5" stop-opacity="0.16"/>
            <stop offset="100%" stop-color="#b35ef5" stop-opacity="0"/>
        </radialGradient>
        <filter id="blurGlow" x="-80%" y="-80%" width="260%" height="260%">
            <feGaussianBlur stdDeviation="22"/>
        </filter>
        <filter id="lift" x="-40%" y="-40%" width="180%" height="180%">
            <feDropShadow dx="0" dy="10" stdDeviation="12" flood-color="#000000" flood-opacity="0.45"/>
        </filter>
    </defs>

    <rect width="1024" height="1024" fill="url(#bg)"/>
    <rect width="1024" height="1024" fill="url(#sheen)"/>
    <circle cx="300" cy="430" r="300" fill="url(#aL)"/>
    <circle cx="730" cy="470" r="300" fill="url(#aR)"/>

    <g filter="url(#blurGlow)" opacity="0.5">
        <path d="M101.9 571.6Q91.4 571.6 85.8 566.0Q80.3 560.3 80.3 549.6V411.4Q80.3 400.3 85.8 394.3Q91.4 388.4 100.6 388.4Q108.5 388.4 113.1 391.5Q117.6 394.6 123.3 401.6L203.6 502.0H196.4V410.3Q196.4 399.7 201.9 394.0Q207.5 388.4 218.1 388.4Q228.6 388.4 234.1 394.0Q239.6 399.7 239.6 410.3V550.6Q239.6 560.1 234.6 565.9Q229.5 571.6 220.8 571.6Q212.2 571.6 207.3 568.5Q202.3 565.3 196.6 558.3L116.4 458.0H123.5V549.6Q123.5 560.3 118.0 566.0Q112.5 571.6 101.9 571.6Z" fill="#1f8fff"/>
        <path d="M287.4 518.8Q279.9 518.8 274.7 513.7Q269.6 508.7 269.6 501.2Q269.6 493.6 274.7 488.6Q279.9 483.7 287.4 483.7H337.6Q345.2 483.7 350.2 488.6Q355.3 493.6 355.3 501.2Q355.3 508.7 350.2 513.7Q345.2 518.8 337.6 518.8Z" fill="#2bd368"/>
        <path d="M409.2 569.3Q397.4 569.3 391.2 563.1Q385.0 556.9 385.0 545.1V414.9Q385.0 403.1 391.2 396.9Q397.4 390.7 409.2 390.7H471.1Q490.4 390.7 503.9 396.4Q517.4 402.0 524.5 412.4Q531.6 422.8 531.6 436.9Q531.6 452.6 522.6 463.8Q513.7 474.9 498.3 478.9V474.8Q516.5 478.2 526.4 489.5Q536.3 500.8 536.3 518.6Q536.3 542.1 519.5 555.7Q502.7 569.3 473.6 569.3ZM429.4 535.2H467.3Q480.3 535.2 486.2 530.2Q492.1 525.3 492.1 515.4Q492.1 505.5 486.2 500.6Q480.3 495.7 467.3 495.7H429.4ZM429.4 461.6H462.6Q475.5 461.6 481.4 457.1Q487.3 452.6 487.3 443.1Q487.3 433.7 481.4 429.3Q475.5 424.8 462.6 424.8H429.4Z" fill="#ff7a3c"/>
        <path d="M603.0 572.2Q588.6 572.2 577.5 566.8Q566.5 561.4 560.3 552.2Q554.1 542.9 554.1 531.1Q554.1 517.4 561.2 509.5Q568.3 501.6 584.1 498.2Q599.9 494.7 625.9 494.7H639.9V516.0H625.8Q615.9 516.0 609.6 517.5Q603.2 518.9 600.1 521.8Q597.1 524.6 597.1 529.3Q597.1 535.2 601.2 539.0Q605.4 542.8 613.3 542.8Q619.6 542.8 624.5 540.0Q629.4 537.2 632.4 532.2Q635.4 527.2 635.4 520.6V491.3Q635.4 482.1 630.8 478.3Q626.2 474.6 614.8 474.6Q608.6 474.6 601.1 476.0Q593.6 477.4 584.0 480.9Q577.3 483.3 572.4 481.6Q567.5 479.8 564.9 475.6Q562.3 471.4 562.4 466.3Q562.5 461.2 565.6 456.6Q568.8 451.9 575.6 449.5Q587.5 445.0 597.9 443.4Q608.3 441.8 616.8 441.8Q637.6 441.8 651.1 447.7Q664.6 453.7 671.3 466.0Q678.0 478.4 678.0 497.5V548.8Q678.0 559.9 672.7 565.8Q667.3 571.6 657.2 571.6Q647.0 571.6 641.5 565.8Q636.1 559.9 636.1 548.8V542.3L637.6 545.7Q636.3 553.8 631.7 559.7Q627.1 565.5 619.8 568.8Q612.5 572.2 603.0 572.2Z" fill="#b35ef5"/>
        <path d="M767.3 572.2Q746.3 572.2 730.6 564.3Q715.0 556.4 706.4 541.6Q697.8 526.8 697.8 506.7Q697.8 491.6 702.7 479.6Q707.5 467.6 716.7 459.1Q725.8 450.6 738.6 446.2Q751.4 441.8 767.3 441.8Q774.6 441.8 782.7 443.2Q790.8 444.7 799.4 448.4Q805.4 450.8 807.8 455.5Q810.3 460.1 810.0 465.4Q809.6 470.7 806.9 475.0Q804.1 479.3 799.6 480.9Q795.0 482.5 789.0 479.7Q784.9 477.7 780.5 476.7Q776.0 475.7 772.0 475.7Q765.2 475.7 760.0 477.8Q754.8 479.9 751.3 483.9Q747.8 487.8 745.9 493.6Q744.0 499.3 744.0 506.8Q744.0 521.5 751.3 529.9Q758.6 538.2 772.0 538.2Q776.0 538.2 780.4 537.3Q784.8 536.5 789.0 534.3Q795.0 531.5 799.5 533.2Q804.1 534.8 806.7 539.1Q809.4 543.4 809.7 548.7Q810.0 554.0 807.4 558.6Q804.9 563.3 799.0 565.6Q790.5 569.2 782.6 570.7Q774.6 572.2 767.3 572.2Z" fill="#1f8fff"/>
        <path d="M848.6 571.6Q837.8 571.6 832.0 565.8Q826.1 559.9 826.1 548.8V411.1Q826.1 400.0 832.0 394.2Q837.8 388.4 848.6 388.4Q859.5 388.4 865.4 394.2Q871.2 400.0 871.2 411.1V494.7H871.7L902.9 457.3Q909.1 449.6 914.6 445.9Q920.1 442.3 929.4 442.3Q938.7 442.3 943.8 446.9Q948.8 451.5 949.0 458.4Q949.3 465.2 943.6 472.1L910.2 511.6V495.8L947.6 543.0Q953.1 550.1 952.2 556.7Q951.2 563.4 945.7 567.5Q940.2 571.6 931.8 571.6Q921.6 571.6 915.6 568.0Q909.6 564.3 903.5 556.3L871.7 517.3H871.2V548.8Q871.2 571.6 848.6 571.6Z" fill="#2bd368"/>
        <circle cx="347" cy="666" r="34" fill="#1f8fff"/>
        <circle cx="457" cy="666" r="34" fill="#2bd368"/>
        <circle cx="567" cy="666" r="34" fill="#ff7a3c"/>
        <circle cx="677" cy="666" r="34" fill="#b35ef5"/>
    </g>
    <g filter="url(#lift)">
        <path d="M101.9 571.6Q91.4 571.6 85.8 566.0Q80.3 560.3 80.3 549.6V411.4Q80.3 400.3 85.8 394.3Q91.4 388.4 100.6 388.4Q108.5 388.4 113.1 391.5Q117.6 394.6 123.3 401.6L203.6 502.0H196.4V410.3Q196.4 399.7 201.9 394.0Q207.5 388.4 218.1 388.4Q228.6 388.4 234.1 394.0Q239.6 399.7 239.6 410.3V550.6Q239.6 560.1 234.6 565.9Q229.5 571.6 220.8 571.6Q212.2 571.6 207.3 568.5Q202.3 565.3 196.6 558.3L116.4 458.0H123.5V549.6Q123.5 560.3 118.0 566.0Q112.5 571.6 101.9 571.6Z" fill="url(#gB)"/>
        <path d="M287.4 518.8Q279.9 518.8 274.7 513.7Q269.6 508.7 269.6 501.2Q269.6 493.6 274.7 488.6Q279.9 483.7 287.4 483.7H337.6Q345.2 483.7 350.2 488.6Q355.3 493.6 355.3 501.2Q355.3 508.7 350.2 513.7Q345.2 518.8 337.6 518.8Z" fill="url(#gG)"/>
        <path d="M409.2 569.3Q397.4 569.3 391.2 563.1Q385.0 556.9 385.0 545.1V414.9Q385.0 403.1 391.2 396.9Q397.4 390.7 409.2 390.7H471.1Q490.4 390.7 503.9 396.4Q517.4 402.0 524.5 412.4Q531.6 422.8 531.6 436.9Q531.6 452.6 522.6 463.8Q513.7 474.9 498.3 478.9V474.8Q516.5 478.2 526.4 489.5Q536.3 500.8 536.3 518.6Q536.3 542.1 519.5 555.7Q502.7 569.3 473.6 569.3ZM429.4 535.2H467.3Q480.3 535.2 486.2 530.2Q492.1 525.3 492.1 515.4Q492.1 505.5 486.2 500.6Q480.3 495.7 467.3 495.7H429.4ZM429.4 461.6H462.6Q475.5 461.6 481.4 457.1Q487.3 452.6 487.3 443.1Q487.3 433.7 481.4 429.3Q475.5 424.8 462.6 424.8H429.4Z" fill="url(#gO)"/>
        <path d="M603.0 572.2Q588.6 572.2 577.5 566.8Q566.5 561.4 560.3 552.2Q554.1 542.9 554.1 531.1Q554.1 517.4 561.2 509.5Q568.3 501.6 584.1 498.2Q599.9 494.7 625.9 494.7H639.9V516.0H625.8Q615.9 516.0 609.6 517.5Q603.2 518.9 600.1 521.8Q597.1 524.6 597.1 529.3Q597.1 535.2 601.2 539.0Q605.4 542.8 613.3 542.8Q619.6 542.8 624.5 540.0Q629.4 537.2 632.4 532.2Q635.4 527.2 635.4 520.6V491.3Q635.4 482.1 630.8 478.3Q626.2 474.6 614.8 474.6Q608.6 474.6 601.1 476.0Q593.6 477.4 584.0 480.9Q577.3 483.3 572.4 481.6Q567.5 479.8 564.9 475.6Q562.3 471.4 562.4 466.3Q562.5 461.2 565.6 456.6Q568.8 451.9 575.6 449.5Q587.5 445.0 597.9 443.4Q608.3 441.8 616.8 441.8Q637.6 441.8 651.1 447.7Q664.6 453.7 671.3 466.0Q678.0 478.4 678.0 497.5V548.8Q678.0 559.9 672.7 565.8Q667.3 571.6 657.2 571.6Q647.0 571.6 641.5 565.8Q636.1 559.9 636.1 548.8V542.3L637.6 545.7Q636.3 553.8 631.7 559.7Q627.1 565.5 619.8 568.8Q612.5 572.2 603.0 572.2Z" fill="url(#gP)"/>
        <path d="M767.3 572.2Q746.3 572.2 730.6 564.3Q715.0 556.4 706.4 541.6Q697.8 526.8 697.8 506.7Q697.8 491.6 702.7 479.6Q707.5 467.6 716.7 459.1Q725.8 450.6 738.6 446.2Q751.4 441.8 767.3 441.8Q774.6 441.8 782.7 443.2Q790.8 444.7 799.4 448.4Q805.4 450.8 807.8 455.5Q810.3 460.1 810.0 465.4Q809.6 470.7 806.9 475.0Q804.1 479.3 799.6 480.9Q795.0 482.5 789.0 479.7Q784.9 477.7 780.5 476.7Q776.0 475.7 772.0 475.7Q765.2 475.7 760.0 477.8Q754.8 479.9 751.3 483.9Q747.8 487.8 745.9 493.6Q744.0 499.3 744.0 506.8Q744.0 521.5 751.3 529.9Q758.6 538.2 772.0 538.2Q776.0 538.2 780.4 537.3Q784.8 536.5 789.0 534.3Q795.0 531.5 799.5 533.2Q804.1 534.8 806.7 539.1Q809.4 543.4 809.7 548.7Q810.0 554.0 807.4 558.6Q804.9 563.3 799.0 565.6Q790.5 569.2 782.6 570.7Q774.6 572.2 767.3 572.2Z" fill="url(#gB)"/>
        <path d="M848.6 571.6Q837.8 571.6 832.0 565.8Q826.1 559.9 826.1 548.8V411.1Q826.1 400.0 832.0 394.2Q837.8 388.4 848.6 388.4Q859.5 388.4 865.4 394.2Q871.2 400.0 871.2 411.1V494.7H871.7L902.9 457.3Q909.1 449.6 914.6 445.9Q920.1 442.3 929.4 442.3Q938.7 442.3 943.8 446.9Q948.8 451.5 949.0 458.4Q949.3 465.2 943.6 472.1L910.2 511.6V495.8L947.6 543.0Q953.1 550.1 952.2 556.7Q951.2 563.4 945.7 567.5Q940.2 571.6 931.8 571.6Q921.6 571.6 915.6 568.0Q909.6 564.3 903.5 556.3L871.7 517.3H871.2V548.8Q871.2 571.6 848.6 571.6Z" fill="url(#gG)"/>
        <circle cx="347" cy="666" r="25" fill="url(#gB)"/>
        <circle cx="457" cy="666" r="25" fill="url(#gG)"/>
        <circle cx="567" cy="666" r="25" fill="url(#gO)"/>
        <circle cx="677" cy="666" r="25" fill="url(#gP)"/>
    </g>
</svg>
